External Loads File
version=1
nRows=46
nColumns=13
Range=5.000000e-03-10 seconds
endheader
time 	forceRightX 	forceRightY 	forceRightZ 	pointRightX 	pointRightY 	pointRightZ 	forceLeftX 	forceLeftY 	forceLeftZ 	pointLeftX 	pointLeftY 	pointLeftZ 		
7.505000 -60.909103 -63.980657 -0.000000 0.250658 0.441839 -0.108639 206.608960 1188.583212 -0.000000 0.382044 0.154539 -0.355112
7.510000 -70.026809 -57.479185 -0.000000 0.260019 0.447948 -0.108993 233.159799 1191.241320 -0.000000 0.373440 0.148784 -0.355288
7.515000 -77.868000 -49.306255 -0.000000 0.269286 0.453373 -0.109887 257.382779 1186.367498 -0.000000 0.364636 0.143535 -0.355301
7.520000 -84.151267 -39.465337 -0.000000 0.278759 0.458230 -0.110398 279.520251 1173.341288 -0.000000 0.355672 0.139001 -0.355333
7.525000 -88.708729 -28.080481 -0.000000 0.288464 0.462338 -0.110791 299.144165 1151.886514 -0.000000 0.346574 0.134973 -0.355412
7.530000 -91.482503 -15.365669 -0.000000 0.298276 0.465902 -0.111136 315.234180 1122.143138 -0.000000 0.337391 0.131607 -0.355338
7.535000 -92.515288 -1.545849 -0.000000 0.308123 0.468733 -0.111501 327.104116 1084.425652 -0.000000 0.328145 0.128722 -0.355594
7.540000 -91.891398 13.184792 -0.000000 0.318223 0.471042 -0.111681 334.908827 1038.982535 -0.000000 0.318956 0.126681 -0.355553
7.545000 -89.731618 28.498917 -0.000000 0.328181 0.472347 -0.111561 337.827010 986.465806 -0.000000 0.309719 0.125257 -0.355370
7.550000 -86.178246 44.168517 -0.000000 0.338261 0.473239 -0.111841 336.606143 927.068115 -0.000000 0.300486 0.124326 -0.355442
7.555000 -81.677570 59.524607 -0.000000 0.347511 0.473460 -0.111516 327.284862 862.759573 -0.000000 0.291940 0.124044 -0.357418
7.560000 -76.146346 74.931958 -0.000000 0.356819 0.473315 -0.111453 316.093039 791.778277 -0.000000 0.282879 0.124880 -0.357306
7.565000 -69.746289 90.337246 -0.000000 0.365882 0.472300 -0.111584 302.627982 714.780481 -0.000000 0.273220 0.126622 -0.355193
7.570000 -63.083905 105.729332 -0.000000 0.374692 0.470787 -0.111358 284.041392 633.766169 -0.000000 0.264303 0.128900 -0.355037
7.575000 -56.340620 121.797658 -0.000000 0.382949 0.468686 -0.111101 261.745750 549.286482 -0.000000 0.255693 0.132018 -0.355362
7.580000 -49.604863 139.380437 -0.000000 0.390568 0.465871 -0.110887 236.712924 462.284685 -0.000000 0.247179 0.135830 -0.355273
7.585000 -42.975417 159.327279 -0.000000 0.397917 0.462631 -0.110381 209.555262 374.136640 -0.000000 0.238983 0.140188 -0.355090
7.590000 -36.649188 182.397586 -0.000000 0.404727 0.458686 -0.109885 180.847235 286.469494 -0.000000 0.231135 0.145067 -0.354931
7.595000 -30.931027 209.149114 -0.000000 0.410962 0.453936 -0.109513 151.340136 200.883350 -0.000000 0.223771 0.150326 -0.354916
7.600000 -25.931863 239.834225 -0.000000 0.416840 0.448567 -0.109345 122.001549 118.629161 -0.000000 0.216739 0.156194 -0.355012
7.605000 -22.244759 274.219132 -0.000000 0.422330 0.442574 -0.108550 93.201482 41.043955 -0.000000 0.210081 0.162227 -0.355075
7.610000 -19.778768 311.706039 -0.000000 0.427548 0.435779 -0.107689 65.270824 -30.954704 -0.000000 0.203674 0.168884 -0.355561
7.615000 -18.362894 351.298073 -0.000000 0.432483 0.428068 -0.107368 37.947947 -96.168654 -0.000000 0.197233 0.176034 -0.354043
7.620000 -19.062285 391.712649 -0.000000 0.437304 0.420161 -0.107564 11.348362 -153.012121 -0.000000 0.191733 0.183712 -0.354174
7.625000 -22.087405 431.716145 -0.000000 0.441763 0.411806 -0.107916 -14.133065 -199.961301 -0.000000 0.186980 0.191481 -0.354286
7.630000 -27.136565 470.293497 -0.000000 0.445880 0.402985 -0.108196 -37.996842 -235.600715 -0.000000 0.182804 0.199362 -0.354337
7.635000 -33.593796 506.829106 -0.000000 0.449536 0.393584 -0.108305 -59.544207 -259.055461 -0.000000 0.179157 0.207598 -0.354527
7.640000 -41.475289 541.133873 -0.000000 0.452520 0.383794 -0.108267 -77.452331 -270.482802 -0.000000 0.175864 0.216065 -0.354452
7.645000 -49.683694 573.464394 -0.000000 0.455183 0.373647 -0.108201 -90.883412 -270.949434 -0.000000 0.172948 0.225024 -0.354489
7.650000 -57.664064 604.205314 -0.000000 0.457362 0.363104 -0.108297 -98.928897 -262.421453 -0.000000 0.170399 0.234405 -0.354596
7.655000 -64.565611 633.759652 -0.000000 0.459308 0.352320 -0.108705 -101.312059 -247.297968 -0.000000 0.168290 0.244270 -0.354745
7.660000 -70.524786 662.329116 -0.000000 0.460586 0.341433 -0.108790 -98.048597 -228.196116 -0.000000 0.166657 0.254427 -0.354777
7.665000 -74.618812 690.089792 -0.000000 0.461363 0.330360 -0.108905 -90.208109 -207.277473 -0.000000 0.165646 0.264819 -0.354958
7.670000 -76.607988 717.057238 -0.000000 0.461552 0.319187 -0.108831 -78.984120 -186.336161 -0.000000 0.165194 0.275313 -0.355086
7.675000 -75.970184 743.219260 -0.000000 0.461407 0.307930 -0.108650 -65.778425 -166.616657 -0.000000 0.165369 0.285880 -0.355112
7.680000 -72.120869 768.475447 -0.000000 0.460477 0.296569 -0.108389 -51.907497 -148.932584 -0.000000 0.166296 0.296562 -0.355169
7.685000 -65.684962 792.516238 -0.000000 0.459288 0.285375 -0.107588 -38.304431 -133.823909 -0.000000 0.167757 0.307229 -0.354921
7.690000 -56.240232 815.109833 -0.000000 0.457163 0.274494 -0.107906 -25.933842 -121.417790 -0.000000 0.169834 0.318073 -0.354969
7.695000 -44.182921 835.974923 -0.000000 0.454738 0.263800 -0.107901 -15.331025 -111.613923 -0.000000 0.172633 0.328834 -0.354998
7.700000 -29.311050 854.899016 -0.000000 0.451737 0.253327 -0.108067 -6.836525 -104.111206 -0.000000 0.175967 0.339625 -0.354883
7.705000 -12.534251 871.655510 -0.000000 0.448257 0.243053 -0.108254 -0.457322 -98.493702 -0.000000 0.179910 0.350144 -0.354820
7.710000 6.179138 886.079021 -0.000000 0.444204 0.232958 -0.108271 3.827688 -94.257547 -0.000000 0.184357 0.360442 -0.354476
7.715000 27.383688 897.935383 -0.000000 0.439435 0.223102 -0.108130 6.129725 -90.932260 -0.000000 0.189383 0.370704 -0.354424
7.720000 48.602305 907.001197 -0.000000 0.434231 0.213692 -0.108054 6.943480 -88.123716 -0.000000 0.194936 0.380433 -0.354323
7.725000 70.532743 912.939265 -0.000000 0.428593 0.204687 -0.108064 6.434219 -85.578958 -0.000000 0.200987 0.389911 -0.354351
7.730000 92.823651 915.408018 -0.000000 0.422371 0.196097 -0.108085 4.810092 -83.120739 -0.000000 0.207502 0.398971 -0.354298
